<svg class="main-svg" xmlns="http://www.w3.org/2000/svg" xmlns:xlink="http://www.w3.org/1999/xlink" width="900" height="450" style="" viewBox="0 0 900 450"><rect x="0" y="0" width="900" height="450" style="fill: rgb(255, 255, 255); fill-opacity: 1;"/><defs id="defs-393317"><g class="clips"><clipPath id="clip393317xyplot" class="plotclip"><rect width="380.7" height="393"/></clipPath><clipPath id="clip393317x2y2plot" class="plotclip"><rect width="380.7" height="393"/></clipPath><clipPath class="axesclip" id="clip393317x"><rect x="43" y="0" width="380.7" height="450"/></clipPath><clipPath class="axesclip" id="clip393317y"><rect x="0" y="20" width="900" height="393"/></clipPath><clipPath class="axesclip" id="clip393317xy"><rect x="43" y="20" width="380.7" height="393"/></clipPath><clipPath class="axesclip" id="clip393317y2"><rect x="0" y="20" width="900" height="393"/></clipPath><clipPath class="axesclip" id="clip393317xy2"><rect x="43" y="20" width="380.7" height="393"/></clipPath><clipPath class="axesclip" id="clip393317x2"><rect x="508.3" y="0" width="380.7" height="450"/></clipPath><clipPath class="axesclip" id="clip393317x2y"><rect x="508.3" y="20" width="380.7" height="393"/></clipPath><clipPath class="axesclip" id="clip393317x2y2"><rect x="508.3" y="20" width="380.7" height="393"/></clipPath></g><g class="gradients"/><g class="patterns"/></defs><g class="bglayer"/><g class="layer-below"><g class="imagelayer"/><g class="shapelayer"/></g><g class="cartesianlayer"><g class="subplot xy"><g class="layer-subplot"><g class="shapelayer"/><g class="imagelayer"/></g><g class="minor-gridlayer"><g class="x"/><g class="y"/></g><g class="gridlayer"><g class="x"/><g class="y"/></g><g class="zerolinelayer"/><path class="xlines-below"/><path class="ylines-below"/><g class="overlines-below"/><g class="xaxislayer-below"/><g class="yaxislayer-below"/><g class="overaxes-below"/><g class="plot" transform="translate(43,20)" clip-path="url(#clip393317xyplot)"><g class="scatterlayer mlayer"><g class="trace scatter trace5f1d32" style="stroke-miterlimit: 2; opacity: 1;"><g class="fills"/><g class="errorbars"/><g class="lines"><path class="js-line" d="M0,373.35L95.65,372.62L96.03,372.59L105.56,370.87L105.94,370.76L112.42,367.99L112.8,367.77L118.14,363.67L118.52,363.29L123.09,357.75L123.47,357.19L128.04,349.06L128.42,348.26L133,336.79L133.38,335.68L138.71,317.16L139.09,315.62L144.05,292.77L144.43,290.79L150.53,254.93L150.91,252.43L158.91,194.51L159.29,191.55L175.3,70.83L175.68,68.46L181.01,40.29L181.39,38.68L185.59,25.14L185.97,24.3L188.64,20.36L189.02,20.08L190.92,19.72L191.3,19.86L193.21,21.63L193.59,22.19L196.26,28.05L196.64,29.16L200.07,41.95L200.45,43.67L205.02,68.46L205.4,70.83L211.88,116.47L212.26,119.39L231.32,262.24L231.7,264.62L238.18,300.36L238.56,302.18L244.27,325.78L244.65,327.11L250.37,343.89L250.75,344.81L255.71,354.78L256.09,355.41L261.04,362.1L261.42,362.51L266.76,367.05L267.14,367.3L272.85,370.12L273.24,370.26L280.86,372.11L281.24,372.17L294.19,373.14L294.58,373.15L330.4,373.35L330.78,373.35L380.7,373.35" style="vector-effect: non-scaling-stroke; fill: none; stroke: rgb(31, 119, 180); stroke-opacity: 1; stroke-width: 2px; opacity: 1;"/></g><g class="points"/><g class="text"/></g></g></g><g class="overplot"/><path class="xlines-above crisp" d="M42,413.5H424.7M42,19.5H424.7" style="fill: none; stroke-width: 1px; stroke: rgb(36, 36, 36); stroke-opacity: 1;"/><path class="ylines-above crisp" d="M42.5,20V413M424.2,20V413" style="fill: none; stroke-width: 1px; stroke: rgb(36, 36, 36); stroke-opacity: 1;"/><g class="overlines-above"/><g class="xaxislayer-above"><path class="xtick ticks crisp" d="M0,413v-5" transform="translate(81.07,0)" style="stroke: rgb(68, 68, 68); stroke-opacity: 1; stroke-width: 1px;"/><path class="xtick ticks crisp" d="M0,413v-5" transform="translate(157.20999999999998,0)" style="stroke: rgb(68, 68, 68); stroke-opacity: 1; stroke-width: 1px;"/><path class="xtick ticks crisp" d="M0,413v-5" transform="translate(233.35,0)" style="stroke: rgb(68, 68, 68); stroke-opacity: 1; stroke-width: 1px;"/><path class="xtick ticks crisp" d="M0,413v-5" transform="translate(309.49,0)" style="stroke: rgb(68, 68, 68); stroke-opacity: 1; stroke-width: 1px;"/><path class="xtick ticks crisp" d="M0,413v-5" transform="translate(385.63,0)" style="stroke: rgb(68, 68, 68); stroke-opacity: 1; stroke-width: 1px;"/><g class="xtick"><text text-anchor="middle" x="0" y="435.6" transform="translate(81.07,0)" style="font-family: Arial; font-size: 18px; fill: rgb(36, 36, 36); fill-opacity: 1; white-space: pre; opacity: 1;">−4</text></g><g class="xtick"><text text-anchor="middle" x="0" y="435.6" style="font-family: Arial; font-size: 18px; fill: rgb(36, 36, 36); fill-opacity: 1; white-space: pre; opacity: 1;" transform="translate(157.20999999999998,0)">−2</text></g><g class="xtick"><text text-anchor="middle" x="0" y="435.6" style="font-family: Arial; font-size: 18px; fill: rgb(36, 36, 36); fill-opacity: 1; white-space: pre; opacity: 1;" transform="translate(233.35,0)">0</text></g><g class="xtick"><text text-anchor="middle" x="0" y="435.6" style="font-family: Arial; font-size: 18px; fill: rgb(36, 36, 36); fill-opacity: 1; white-space: pre; opacity: 1;" transform="translate(309.49,0)">2</text></g><g class="xtick"><text text-anchor="middle" x="0" y="435.6" style="font-family: Arial; font-size: 18px; fill: rgb(36, 36, 36); fill-opacity: 1; white-space: pre; opacity: 1;" transform="translate(385.63,0)">4</text></g></g><g class="yaxislayer-above"><path class="ytick ticks crisp" d="M43,0h5" transform="translate(0,393.35)" style="stroke: rgb(68, 68, 68); stroke-opacity: 1; stroke-width: 1px;"/><path class="ytick ticks crisp" d="M43,0h5" transform="translate(0,322.61)" style="stroke: rgb(68, 68, 68); stroke-opacity: 1; stroke-width: 1px;"/><path class="ytick ticks crisp" d="M43,0h5" transform="translate(0,251.87)" style="stroke: rgb(68, 68, 68); stroke-opacity: 1; stroke-width: 1px;"/><path class="ytick ticks crisp" d="M43,0h5" transform="translate(0,181.12)" style="stroke: rgb(68, 68, 68); stroke-opacity: 1; stroke-width: 1px;"/><path class="ytick ticks crisp" d="M43,0h5" transform="translate(0,110.38)" style="stroke: rgb(68, 68, 68); stroke-opacity: 1; stroke-width: 1px;"/><path class="ytick ticks crisp" d="M43,0h5" transform="translate(0,39.64)" style="stroke: rgb(68, 68, 68); stroke-opacity: 1; stroke-width: 1px;"/><g class="ytick"><text text-anchor="end" x="38.4" y="6.3" transform="translate(0,393.35)" style="font-family: Arial; font-size: 18px; fill: rgb(36, 36, 36); fill-opacity: 1; white-space: pre; opacity: 1;">0</text></g><g class="ytick"><text text-anchor="end" x="38.4" y="6.3" style="font-family: Arial; font-size: 18px; fill: rgb(36, 36, 36); fill-opacity: 1; white-space: pre; opacity: 1;" transform="translate(0,322.61)">0.2</text></g><g class="ytick"><text text-anchor="end" x="38.4" y="6.3" style="font-family: Arial; font-size: 18px; fill: rgb(36, 36, 36); fill-opacity: 1; white-space: pre; opacity: 1;" transform="translate(0,251.87)">0.4</text></g><g class="ytick"><text text-anchor="end" x="38.4" y="6.3" style="font-family: Arial; font-size: 18px; fill: rgb(36, 36, 36); fill-opacity: 1; white-space: pre; opacity: 1;" transform="translate(0,181.12)">0.6</text></g><g class="ytick"><text text-anchor="end" x="38.4" y="6.3" style="font-family: Arial; font-size: 18px; fill: rgb(36, 36, 36); fill-opacity: 1; white-space: pre; opacity: 1;" transform="translate(0,110.38)">0.8</text></g><g class="ytick"><text text-anchor="end" x="38.4" y="6.3" style="font-family: Arial; font-size: 18px; fill: rgb(36, 36, 36); fill-opacity: 1; white-space: pre; opacity: 1;" transform="translate(0,39.64)">1</text></g></g><g class="overaxes-above"/></g><g class="subplot x2y2"><g class="layer-subplot"><g class="shapelayer"/><g class="imagelayer"/></g><g class="minor-gridlayer"><g class="x2"/><g class="y2"/></g><g class="gridlayer"><g class="x2"/><g class="y2"/></g><g class="zerolinelayer"/><path class="xlines-below"/><path class="ylines-below"/><g class="overlines-below"/><g class="xaxislayer-below"/><g class="yaxislayer-below"/><g class="overaxes-below"/><g class="plot" transform="translate(508.3,20)" clip-path="url(#clip393317x2y2plot)"><g class="scatterlayer mlayer"><g class="trace scatter tracef93ccd" style="stroke-miterlimit: 2; opacity: 1;"><g class="fills"/><g class="errorbars"/><g class="lines"><path class="js-line" d="M0,373.35L95.65,372.62L96.03,372.59L105.56,370.87L105.94,370.76L112.42,367.99L112.8,367.77L118.14,363.67L118.52,363.29L123.09,357.75L123.47,357.19L128.04,349.06L128.42,348.26L133,336.79L133.38,335.68L138.71,317.16L139.09,315.62L144.05,292.77L144.43,290.79L150.53,254.93L150.91,252.43L158.91,194.51L159.29,191.55L175.3,70.83L175.68,68.46L181.01,40.29L181.39,38.68L185.59,25.14L185.97,24.3L188.64,20.36L189.02,20.08L190.92,19.72L191.3,19.86L193.21,21.63L193.59,22.19L196.26,28.05L196.64,29.16L200.07,41.95L200.45,43.67L205.02,68.46L205.4,70.83L211.88,116.47L212.26,119.39L231.32,262.24L231.7,264.62L238.18,300.36L238.56,302.18L244.27,325.78L244.65,327.11L250.37,343.89L250.75,344.81L255.71,354.78L256.09,355.41L261.04,362.1L261.42,362.51L266.76,367.05L267.14,367.3L272.85,370.12L273.24,370.26L280.86,372.11L281.24,372.17L294.19,373.14L294.58,373.15L330.4,373.35L330.78,373.35L380.7,373.35" style="vector-effect: non-scaling-stroke; fill: none; stroke: rgb(255, 127, 14); stroke-opacity: 1; stroke-width: 2px; opacity: 1;"/></g><g class="points"/><g class="text"/></g></g></g><g class="overplot"/><path class="xlines-above crisp" d="M507.3,413.5H890M507.3,19.5H890" style="fill: none; stroke-width: 1px; stroke: rgb(36, 36, 36); stroke-opacity: 1;"/><path class="ylines-above crisp" d="M507.8,20V413M889.5,20V413" style="fill: none; stroke-width: 1px; stroke: rgb(36, 36, 36); stroke-opacity: 1;"/><g class="overlines-above"/><g class="xaxislayer-above"><path class="x2tick ticks crisp" d="M0,413v-5" transform="translate(546.37,0)" style="stroke: rgb(68, 68, 68); stroke-opacity: 1; stroke-width: 1px;"/><path class="x2tick ticks crisp" d="M0,413v-5" transform="translate(622.51,0)" style="stroke: rgb(68, 68, 68); stroke-opacity: 1; stroke-width: 1px;"/><path class="x2tick ticks crisp" d="M0,413v-5" transform="translate(698.65,0)" style="stroke: rgb(68, 68, 68); stroke-opacity: 1; stroke-width: 1px;"/><path class="x2tick ticks crisp" d="M0,413v-5" transform="translate(774.79,0)" style="stroke: rgb(68, 68, 68); stroke-opacity: 1; stroke-width: 1px;"/><path class="x2tick ticks crisp" d="M0,413v-5" transform="translate(850.9300000000001,0)" style="stroke: rgb(68, 68, 68); stroke-opacity: 1; stroke-width: 1px;"/><g class="x2tick"><text text-anchor="middle" x="0" y="435.6" transform="translate(546.37,0)" style="font-family: Arial; font-size: 18px; fill: rgb(36, 36, 36); fill-opacity: 1; white-space: pre; opacity: 1;">−4</text></g><g class="x2tick"><text text-anchor="middle" x="0" y="435.6" style="font-family: Arial; font-size: 18px; fill: rgb(36, 36, 36); fill-opacity: 1; white-space: pre; opacity: 1;" transform="translate(622.51,0)">−2</text></g><g class="x2tick"><text text-anchor="middle" x="0" y="435.6" style="font-family: Arial; font-size: 18px; fill: rgb(36, 36, 36); fill-opacity: 1; white-space: pre; opacity: 1;" transform="translate(698.65,0)">0</text></g><g class="x2tick"><text text-anchor="middle" x="0" y="435.6" style="font-family: Arial; font-size: 18px; fill: rgb(36, 36, 36); fill-opacity: 1; white-space: pre; opacity: 1;" transform="translate(774.79,0)">2</text></g><g class="x2tick"><text text-anchor="middle" x="0" y="435.6" style="font-family: Arial; font-size: 18px; fill: rgb(36, 36, 36); fill-opacity: 1; white-space: pre; opacity: 1;" transform="translate(850.9300000000001,0)">4</text></g></g><g class="yaxislayer-above"><path class="y2tick ticks crisp" d="M508.3,0h5" transform="translate(0,393.35)" style="stroke: rgb(68, 68, 68); stroke-opacity: 1; stroke-width: 1px;"/><path class="y2tick ticks crisp" d="M508.3,0h5" transform="translate(0,322.61)" style="stroke: rgb(68, 68, 68); stroke-opacity: 1; stroke-width: 1px;"/><path class="y2tick ticks crisp" d="M508.3,0h5" transform="translate(0,251.87)" style="stroke: rgb(68, 68, 68); stroke-opacity: 1; stroke-width: 1px;"/><path class="y2tick ticks crisp" d="M508.3,0h5" transform="translate(0,181.12)" style="stroke: rgb(68, 68, 68); stroke-opacity: 1; stroke-width: 1px;"/><path class="y2tick ticks crisp" d="M508.3,0h5" transform="translate(0,110.38)" style="stroke: rgb(68, 68, 68); stroke-opacity: 1; stroke-width: 1px;"/><path class="y2tick ticks crisp" d="M508.3,0h5" transform="translate(0,39.64)" style="stroke: rgb(68, 68, 68); stroke-opacity: 1; stroke-width: 1px;"/><g class="y2tick"><text text-anchor="end" x="503.7" y="6.3" transform="translate(0,393.35)" style="font-family: Arial; font-size: 18px; fill: rgb(36, 36, 36); fill-opacity: 1; white-space: pre; opacity: 1;">0</text></g><g class="y2tick"><text text-anchor="end" x="503.7" y="6.3" style="font-family: Arial; font-size: 18px; fill: rgb(36, 36, 36); fill-opacity: 1; white-space: pre; opacity: 1;" transform="translate(0,322.61)">0.1</text></g><g class="y2tick"><text text-anchor="end" x="503.7" y="6.3" style="font-family: Arial; font-size: 18px; fill: rgb(36, 36, 36); fill-opacity: 1; white-space: pre; opacity: 1;" transform="translate(0,251.87)">0.2</text></g><g class="y2tick"><text text-anchor="end" x="503.7" y="6.3" style="font-family: Arial; font-size: 18px; fill: rgb(36, 36, 36); fill-opacity: 1; white-space: pre; opacity: 1;" transform="translate(0,181.12)">0.3</text></g><g class="y2tick"><text text-anchor="end" x="503.7" y="6.3" style="font-family: Arial; font-size: 18px; fill: rgb(36, 36, 36); fill-opacity: 1; white-space: pre; opacity: 1;" transform="translate(0,110.38)">0.4</text></g><g class="y2tick"><text text-anchor="end" x="503.7" y="6.3" style="font-family: Arial; font-size: 18px; fill: rgb(36, 36, 36); fill-opacity: 1; white-space: pre; opacity: 1;" transform="translate(0,39.64)">0.5</text></g></g><g class="overaxes-above"/></g></g><g class="polarlayer"/><g class="smithlayer"/><g class="ternarylayer"/><g class="geolayer"/><g class="funnelarealayer"/><g class="pielayer"/><g class="iciclelayer"/><g class="treemaplayer"/><g class="sunburstlayer"/><g class="glimages"/><defs id="topdefs-393317"><g class="clips"/></defs><g class="layer-above"><g class="imagelayer"/><g class="shapelayer"/></g><g class="infolayer"><g class="g-gtitle"/><g class="g-xtitle"/><g class="g-x2title"/><g class="g-ytitle"/><g class="g-y2title"/></g></svg>
